<?xml version="1.0" standalone="no"?>
<!DOCTYPE svg PUBLIC "-//W3C//DTD SVG 20010904//EN"
 "http://www.w3.org/TR/2001/REC-SVG-20010904/DTD/svg10.dtd">
<svg version="1.0" xmlns="http://www.w3.org/2000/svg"
 width="200.000000pt" height="200.000000pt" viewBox="0 0 200.000000 200.000000"
 preserveAspectRatio="xMidYMid meet">

<g transform="translate(0.000000,200.000000) scale(0.100000,-0.100000)"
fill="#000000" stroke="none">
<path d="M810 1945 c-360 -81 -631 -326 -734 -665 -64 -215 -54 -437 32 -647
144 -353 504 -593 889 -593 416 0 798 283 917 680 59 197 60 351 4 545 -75
260 -266 489 -503 601 -134 63 -233 86 -395 90 -102 3 -164 -1 -210 -11z m900
-945 l0 -110 -52 0 c-29 0 -96 3 -149 6 -94 7 -96 7 -78 25 36 36 19 72 -18
37 -12 -12 -25 -19 -28 -16 -12 11 8 57 26 63 20 7 25 21 10 27 -5 2 -6 17 -4
35 5 32 6 32 67 36 33 2 98 4 144 5 l82 2 0 -110z m-1276 90 c39 0 47 -3 38
-12 -7 -7 -12 -24 -12 -39 0 -15 -5 -31 -11 -34 -22 -14 -30 -57 -15 -80 14
-22 14 -22 -39 -28 -53 -5 -148 12 -167 31 -5 5 -8 38 -6 73 l3 64 60 17 c33
9 69 15 80 13 11 -3 42 -5 69 -5z m713 -4 c-3 -8 -11 -32 -16 -53 -6 -21 -17
-47 -25 -58 -15 -19 -15 -19 -9 3 7 30 -13 52 -48 52 -23 0 -33 -8 -49 -37
-13 -23 -19 -29 -17 -16 13 61 -66 73 -95 14 -29 -58 -48 -69 -28 -17 11 31 4
56 -17 56 -10 0 -13 6 -9 16 3 9 6 22 6 30 0 11 28 14 133 17 72 1 143 4 156
5 16 1 22 -2 18 -12z m60 2 c-2 -7 -12 -38 -21 -69 -8 -31 -23 -63 -32 -70
-15 -12 -16 -11 -10 11 5 14 16 43 27 66 10 22 19 48 19 57 0 9 5 17 11 17 6
0 9 -6 6 -12z m115 -13 c-3 -20 0 -25 17 -25 23 0 30 35 9 43 -7 3 -3 6 10 6
19 1 22 -3 16 -26 -8 -34 -29 -52 -53 -46 -13 3 -20 -5 -29 -36 -17 -56 -36
-65 -27 -13 5 30 3 42 -8 49 -10 5 -13 19 -10 41 5 30 8 32 43 32 34 0 37 -2
32 -25z m-542 -46 c-21 -69 -35 -89 -61 -89 -21 0 -25 25 -9 50 8 13 10 12 10
-2 0 -19 25 -25 35 -8 9 15 -3 47 -21 54 -23 9 -50 -9 -64 -44 -15 -36 -34
-27 -35 17 0 41 -29 41 -53 -1 -36 -60 -102 -87 -110 -43 -3 13 3 17 27 17 36
0 50 18 28 35 -23 16 -22 39 1 30 32 -12 37 -10 37 18 l-1 27 117 0 117 0 -18
-61z m556 -66 c-11 -21 -15 -23 -16 -10 0 24 22 65 27 50 2 -6 -3 -24 -11 -40z
m-506 30 c-1 -13 -29 -59 -30 -48 0 21 13 55 21 55 5 0 9 -3 9 -7z m120 3 c0
-2 -7 -9 -15 -16 -13 -11 -14 -10 -9 4 5 14 24 23 24 12z m110 -5 c0 -5 -7
-11 -14 -14 -10 -4 -13 -1 -9 9 6 15 23 19 23 5z m-250 -76 c10 -13 9 -15 -8
-15 -15 0 -20 5 -16 15 4 8 7 15 9 15 1 0 8 -7 15 -15z m410 -6 c0 -5 -7 -9
-15 -9 -9 0 -12 6 -9 15 6 15 24 11 24 -6z m-224 -2 c4 -4 -5 -7 -20 -7 -15 0
-25 4 -22 9 7 10 31 9 42 -2z m109 3 c3 -6 -4 -10 -17 -10 -18 0 -20 2 -8 10
19 12 18 12 25 0z"/>
</g>
</svg>
